# xmcd CD database file
# Copyright (C) 1997 Ti Kan
# 
# Track frame offsets:
#     150
#     17587
#     31000
#     46050
#     60135
#     75512
#     88880
#     105375
#     121455
#     140725
#     158190
#     173287
#     192237
#     207985
#     222675
#     239715
#     256632
# 
# Disc length: 3582 seconds
# 
# Revision: 1
# Processed by: cddbd v1.4b41PL1 Copyright (c) Steve Scherf et al.
# Submitted via: DiscPlay 4.0.4
# 
DISCID=da0dfc11
DTITLE=Various Artist - Heart of the country 2
DYEAR=1900
DGENRE=
TTITLE0=To know him is to love him
TTITLE1=love reunited
TTITLE2=the last one to know
TTITLE3=lynda
TTITLE4=goodbye's all we've got left
TTITLE5=chains of gold
TTITLE6=she's too good to be true
TTITLE7=love's gonna get you someday
TTITLE8=you've got the touch
TTITLE9=the moon is still over her shoulder
TTITLE10=you again
TTITLE11=i'll still be loving you
TTITLE12=maybe your baby's got the blues
TTITLE13=she couldn't love me anymore
TTITLE14=love me like you used to
TTITLE15=i will be there
TTITLE16=you're never too old for young
EXTD=
EXTT0=
EXTT1=
EXTT2=
EXTT3=
EXTT4=
EXTT5=
EXTT6=
EXTT7=
EXTT8=
EXTT9=
EXTT10=
EXTT11=
EXTT12=
EXTT13=
EXTT14=
EXTT15=
EXTT16=
PLAYORDER=
